<svg xmlns="http://www.w3.org/2000/svg" xmlns:xlink="http://www.w3.org/1999/xlink" viewBox="0 0 63.81 39.47"><defs><style>.cls-1{fill:url(#linear-gradient);}.cls-2{fill:#fff;}</style><linearGradient id="linear-gradient" x1="1.25" y1="1.43" x2="61.86" y2="37.63" gradientUnits="userSpaceOnUse"><stop offset="0" stop-color="#57c9e7"/><stop offset="0.52" stop-color="#9979b7"/><stop offset="1" stop-color="#555aa7"/></linearGradient></defs><title>main</title><g id="Layer_2" data-name="Layer 2"><g id="Layer_1-2" data-name="Layer 1"><rect class="cls-1" width="63.81" height="39.47" rx="2.82"/><path class="cls-2" d="M18.42,7a4.89,4.89,0,0,0-2.18.68,13.93,13.93,0,0,0-2.08,1.46,23.14,23.14,0,0,0-1.71,1.56.67.67,0,0,0-.06-.32c0-.06,0-.22.11-.46s.24-.64.41-1.2.47-1.39.89-2.5c.07-.13.15-.34.26-.62a2.33,2.33,0,0,0,.15-.78A.82.82,0,0,0,14,4.23,1.17,1.17,0,0,0,13.07,4a4.49,4.49,0,0,0-1.51.21,2.32,2.32,0,0,0-1.09,1q-1,2.19-2.18,5.41C7.52,12.77,6.81,15,6.15,17.38S4.89,22.1,4.34,24.45s-1,4.47-1.3,6.34a28.27,28.27,0,0,0-.47,4.58c0,1.18.24,1.77.73,1.77a15.82,15.82,0,0,0,2-.11.94.94,0,0,0,.94-.83,27.47,27.47,0,0,1,.62-3.69c.35-1.56.69-3.08,1-4.57s.66-2.76.94-3.8a5,5,0,0,1,.52-1.56,4.66,4.66,0,0,0,3.38.21,9.87,9.87,0,0,0,3.48-1.87,16,16,0,0,0,3-3.17,17.13,17.13,0,0,0,2-3.7,8.33,8.33,0,0,0,.62-3.53,3.86,3.86,0,0,0-1.24-2.71A3.21,3.21,0,0,0,18.42,7Zm-.05,5.05a13.34,13.34,0,0,1-2.13,4,19.29,19.29,0,0,1-3.38,3.54,5.49,5.49,0,0,1-3,1.5c-.14,0,0-.69.46-2.07a30.08,30.08,0,0,1,1.88-4.42,22.36,22.36,0,0,1,2.65-4.11c1-1.18,1.9-1.6,2.81-1.25C18.55,9.83,18.79,10.76,18.37,12.08Z"/><path class="cls-2" d="M18.42,7a4.89,4.89,0,0,0-2.18.68,13.93,13.93,0,0,0-2.08,1.46,23.14,23.14,0,0,0-1.71,1.56.67.67,0,0,0-.06-.32c0-.06,0-.22.11-.46s.24-.64.41-1.2.47-1.39.89-2.5c.07-.13.15-.34.26-.62a2.33,2.33,0,0,0,.15-.78A.82.82,0,0,0,14,4.23,1.17,1.17,0,0,0,13.07,4a4.49,4.49,0,0,0-1.51.21,2.32,2.32,0,0,0-1.09,1q-1,2.19-2.18,5.41C7.52,12.77,6.81,15,6.15,17.38S4.89,22.1,4.34,24.45s-1,4.47-1.3,6.34a28.27,28.27,0,0,0-.47,4.58c0,1.18.24,1.77.73,1.77a15.82,15.82,0,0,0,2-.11.94.94,0,0,0,.94-.83,27.47,27.47,0,0,1,.62-3.69c.35-1.56.69-3.08,1-4.57s.66-2.76.94-3.8a5,5,0,0,1,.52-1.56,4.66,4.66,0,0,0,3.38.21,9.87,9.87,0,0,0,3.48-1.87,16,16,0,0,0,3-3.17,17.13,17.13,0,0,0,2-3.7,8.33,8.33,0,0,0,.62-3.53,3.86,3.86,0,0,0-1.24-2.71A3.21,3.21,0,0,0,18.42,7Zm-.05,5.05a13.34,13.34,0,0,1-2.13,4,19.29,19.29,0,0,1-3.38,3.54,5.49,5.49,0,0,1-3,1.5c-.14,0,0-.69.46-2.07a30.08,30.08,0,0,1,1.88-4.42,22.36,22.36,0,0,1,2.65-4.11c1-1.18,1.9-1.6,2.81-1.25C18.55,9.83,18.79,10.76,18.37,12.08Z"/><path class="cls-2" d="M53.67,25.34q2.23-6.91,5.15-17.53a6.12,6.12,0,0,1,.31-1,1.11,1.11,0,0,0-.1-1q-2.19-1.25-3.33.06a18,18,0,0,0-2.44,4Q52,12.4,49.93,15.87a25.21,25.21,0,0,1-5.77,6.61c-.42.34-.59-.09-.52-1.3a32.28,32.28,0,0,1,.62-4.37q.52-2.55,1.3-5.1a10,10,0,0,1,1.61-3.48,2.25,2.25,0,0,0,.42-.78c.14-.38.1-.64-.1-.78a2.31,2.31,0,0,0-2.6,0,7,7,0,0,0-2.24,2.49,17.77,17.77,0,0,0-1.43,3.36q-1.5,2.92-2.62,5.33Q37.09,21,36,21.85q-.31.31-.78,0c-.32-.21-.47-.81-.47-1.82a20.6,20.6,0,0,1,.78-4.57,63.56,63.56,0,0,1,3-8.27c.07-.28-.1-.52-.52-.73A5.61,5.61,0,0,0,36.47,6a6.92,6.92,0,0,0-1.62-.1c-.52,0-.81.16-.88.36-.35.91-.73,1.32-1.14,1.25a5.88,5.88,0,0,0-4.11.42,9.17,9.17,0,0,0-3.12,2.6,16.11,16.11,0,0,0-2.18,3.79,18.7,18.7,0,0,0-1.2,4,10.49,10.49,0,0,0-.1,3.27c.14.94.45,1.48.93,1.61a3.5,3.5,0,0,0,3.17-.46,8.83,8.83,0,0,0,2.55-3.07,19.38,19.38,0,0,0,.88-1.77A22.82,22.82,0,0,1,31,15.35c.45-.72.78-1.12,1-1.19s.14.66-.2,2.18a13.88,13.88,0,0,0-.26,6.19c.38,1.83,1.1,2.82,2.18,3s2.44-.85,4.11-3A22.6,22.6,0,0,0,40,18.94a13.46,13.46,0,0,0,.18,2.91,3,3,0,0,0,1.25,2.29,3.75,3.75,0,0,0,3.64.36,10.66,10.66,0,0,0,3.22-2.23,18.62,18.62,0,0,0,2.44-3q1-1.5,1.35-1.92c.25-.28.25,0,0,.83s-.78,2.64-1.61,5.41a2.91,2.91,0,0,1-.15.57c-.11.31-.21.64-.32,1a7.22,7.22,0,0,1-.36,1c-.14.31-.24.47-.31.47a12.06,12.06,0,0,0-4.78,3.64,19.41,19.41,0,0,0-3.28,5.35,10.92,10.92,0,0,0-.85,3.84h2.44a13.62,13.62,0,0,1,.39-1.71,31.92,31.92,0,0,1,1.19-3.43,14.87,14.87,0,0,1,1.77-3.17,4.76,4.76,0,0,1,2.29-1.82,5.63,5.63,0,0,1-.47,1.72c-.31.79-.68,1.66-1.09,2.59l-1.25,2.81c-.42.94-.76,1.72-1,2.34-.12.25-.24.46-.35.67H48.1a32.07,32.07,0,0,0,1.57-3.16Q51.44,32.25,53.67,25.34ZM30.43,12.18c-.55,1-1.16,2-1.82,3.17s-1.26,2.2-1.82,3.17-.86,1.53-.93,1.67a.41.41,0,0,1-.31.1c-.21-.07-.19-.59.05-1.56a19.23,19.23,0,0,1,1.19-3.27,16.46,16.46,0,0,1,2-3.33,4.19,4.19,0,0,1,2.45-1.72A6.25,6.25,0,0,1,30.43,12.18Z"/><path class="cls-2" d="M53.67,25.34q2.23-6.91,5.15-17.53a6.12,6.12,0,0,1,.31-1,1.11,1.11,0,0,0-.1-1q-2.19-1.25-3.33.06a18,18,0,0,0-2.44,4Q52,12.4,49.93,15.87a25.21,25.21,0,0,1-5.77,6.61c-.42.34-.59-.09-.52-1.3a32.28,32.28,0,0,1,.62-4.37q.52-2.55,1.3-5.1a10,10,0,0,1,1.61-3.48,2.25,2.25,0,0,0,.42-.78c.14-.38.1-.64-.1-.78a2.31,2.31,0,0,0-2.6,0,7,7,0,0,0-2.24,2.49,17.77,17.77,0,0,0-1.43,3.36q-1.5,2.92-2.62,5.33Q37.09,21,36,21.85q-.31.31-.78,0c-.32-.21-.47-.81-.47-1.82a20.6,20.6,0,0,1,.78-4.57,63.56,63.56,0,0,1,3-8.27c.07-.28-.1-.52-.52-.73A5.61,5.61,0,0,0,36.47,6a6.92,6.92,0,0,0-1.62-.1c-.52,0-.81.16-.88.36-.35.91-.73,1.32-1.14,1.25a5.88,5.88,0,0,0-4.11.42,9.17,9.17,0,0,0-3.12,2.6,16.11,16.11,0,0,0-2.18,3.79,18.7,18.7,0,0,0-1.2,4,10.49,10.49,0,0,0-.1,3.27c.14.94.45,1.48.93,1.61a3.5,3.5,0,0,0,3.17-.46,8.83,8.83,0,0,0,2.55-3.07,19.38,19.38,0,0,0,.88-1.77A22.82,22.82,0,0,1,31,15.35c.45-.72.78-1.12,1-1.19s.14.66-.2,2.18a13.88,13.88,0,0,0-.26,6.19c.38,1.83,1.1,2.82,2.18,3s2.44-.85,4.11-3A22.6,22.6,0,0,0,40,18.94a13.46,13.46,0,0,0,.18,2.91,3,3,0,0,0,1.25,2.29,3.75,3.75,0,0,0,3.64.36,10.66,10.66,0,0,0,3.22-2.23,18.62,18.62,0,0,0,2.44-3q1-1.5,1.35-1.92c.25-.28.25,0,0,.83s-.78,2.64-1.61,5.41a2.91,2.91,0,0,1-.15.57c-.11.31-.21.64-.32,1a7.22,7.22,0,0,1-.36,1c-.14.31-.24.47-.31.47a12.06,12.06,0,0,0-4.78,3.64,19.41,19.41,0,0,0-3.28,5.35,10.92,10.92,0,0,0-.85,3.84h2.44a13.62,13.62,0,0,1,.39-1.71,31.92,31.92,0,0,1,1.19-3.43,14.87,14.87,0,0,1,1.77-3.17,4.76,4.76,0,0,1,2.29-1.82,5.63,5.63,0,0,1-.47,1.72c-.31.79-.68,1.66-1.09,2.59l-1.25,2.81c-.42.94-.76,1.72-1,2.34-.12.25-.24.46-.35.67H48.1a32.07,32.07,0,0,0,1.57-3.16Q51.44,32.25,53.67,25.34ZM30.43,12.18c-.55,1-1.16,2-1.82,3.17s-1.26,2.2-1.82,3.17-.86,1.53-.93,1.67a.41.41,0,0,1-.31.1c-.21-.07-.19-.59.05-1.56a19.23,19.23,0,0,1,1.19-3.27,16.46,16.46,0,0,1,2-3.33,4.19,4.19,0,0,1,2.45-1.72A6.25,6.25,0,0,1,30.43,12.18Z"/></g></g></svg>